<svg width="48" height="48" viewBox="0 0 48 48" fill="none" xmlns="http://www.w3.org/2000/svg">
<path d="M16.7892 20.5392L7.57879 17.2045C6.89048 16.9553 6.19628 17.5594 6.34799 18.2755L10.4323 37.5547C10.5574 38.1449 11.0592 38.5772 11.6618 38.6068C14.0964 38.7262 20.3737 39.0111 24.6665 38.9997C29.0221 38.9881 35.05 38.719 37.4131 38.6052C38.0106 38.5765 38.5111 38.1517 38.6419 37.568L42.9618 18.2892C43.1227 17.5711 42.428 16.958 41.7355 17.2068L32.4328 20.549C32.0184 20.6979 31.5563 20.5369 31.3241 20.1627L25.2168 10.3188C24.8457 9.72082 23.9715 9.73296 23.6172 10.3411L17.9134 20.1315C17.6864 20.5212 17.2132 20.6928 16.7892 20.5392Z" fill="#D7D7D7"/>
<path d="M25.0407 21.32C22.5747 21.32 20.7927 22.616 20.3607 25.37L22.7187 25.766C22.7367 25.406 22.7727 25.136 22.8627 24.866C23.1507 24.074 23.8707 23.39 24.8787 23.39C26.0487 23.39 26.7867 24.038 26.7867 25.28C26.7867 26.666 25.9407 27.746 24.5727 29.114L20.0547 33.56V35H29.4327V32.732H25.1127C24.6987 32.732 24.2667 32.75 23.7807 32.876L26.5707 30.068C27.9027 28.682 29.2347 27.116 29.2887 25.226C29.2887 22.922 27.5427 21.32 25.0407 21.32Z" fill="white"/>
</svg>
