<svg width="48" height="48" viewBox="0 0 48 48" fill="none" xmlns="http://www.w3.org/2000/svg">
<path d="M16.7892 20.5392L7.57879 17.2045C6.89048 16.9553 6.19628 17.5594 6.34799 18.2755L10.4323 37.5547C10.5574 38.1449 11.0592 38.5772 11.6618 38.6068C14.0964 38.7262 20.3737 39.0111 24.6665 38.9997C29.0221 38.9881 35.05 38.719 37.4131 38.6052C38.0106 38.5765 38.5111 38.1517 38.6419 37.568L42.9618 18.2892C43.1227 17.5711 42.428 16.958 41.7355 17.2068L32.4328 20.549C32.0184 20.6979 31.5563 20.5369 31.3241 20.1627L25.2168 10.3188C24.8457 9.72082 23.9715 9.73296 23.6172 10.3411L17.9134 20.1315C17.6864 20.5212 17.2132 20.6928 16.7892 20.5392Z" fill="#D36E4E"/>
<path d="M25.1307 21.32C22.5927 21.32 20.8827 22.58 20.3607 25.334C21.1527 25.46 21.9267 25.622 22.7007 25.748C22.9347 24.452 23.4567 23.444 24.9867 23.444C26.1567 23.444 26.8587 24.056 26.8407 25.298C26.8407 26.45 26.2827 27.206 23.9067 27.26V29.06C26.7147 29.06 27.0567 29.924 27.0567 31.184C27.0567 32.192 26.2827 33.182 24.6987 33.182C23.4207 33.182 22.4127 31.904 22.1247 30.752L19.9287 31.616C20.6487 33.974 21.9987 35.342 24.7347 35.342C27.2547 35.342 29.4507 33.884 29.5047 31.13C29.5047 29.546 28.8387 28.52 27.2547 27.926C28.3887 27.368 29.2707 26.468 29.2707 24.938C29.3247 22.94 27.6507 21.374 25.1307 21.32Z" fill="white"/>
</svg>
