<svg width="48" height="48" viewBox="0 0 48 48" fill="none" xmlns="http://www.w3.org/2000/svg">
<path d="M16.7892 20.5392L7.57879 17.2045C6.89048 16.9553 6.19628 17.5594 6.34799 18.2755L10.4323 37.5547C10.5574 38.1449 11.0592 38.5772 11.6618 38.6068C14.0964 38.7262 20.3737 39.0111 24.6665 38.9997C29.0221 38.9881 35.05 38.719 37.4131 38.6052C38.0106 38.5765 38.5111 38.1517 38.6419 37.568L42.9618 18.2892C43.1227 17.5711 42.428 16.958 41.7355 17.2068L32.4328 20.549C32.0184 20.6979 31.5563 20.5369 31.3241 20.1627L25.2168 10.3188C24.8457 9.72082 23.9715 9.73296 23.6172 10.3411L17.9134 20.1315C17.6864 20.5212 17.2132 20.6928 16.7892 20.5392Z" fill="#FFB320"/>
<path d="M26.7327 33.002V21.536H24.6087L20.7207 24.884L22.1427 26.504L24.3387 24.506L24.2667 25.676V33.002H21.6387V35H29.0547V33.002H26.7327Z" fill="white"/>
</svg>
