<svg width="14" height="15" viewBox="0 0 14 15" fill="none" xmlns="http://www.w3.org/2000/svg">
<path d="M6.54652 0.976481C6.72571 0.590615 7.27429 0.590615 7.45348 0.976481L9.14933 4.62813C9.22219 4.78501 9.37095 4.89309 9.54266 4.9139L13.5396 5.39832C13.962 5.44951 14.1315 5.97123 13.8199 6.2609L10.871 9.00217C10.7443 9.11994 10.6875 9.29481 10.7208 9.46455L11.4952 13.4156C11.577 13.8331 11.1332 14.1555 10.7614 13.9487L7.24309 11.9912C7.09194 11.9072 6.90806 11.9072 6.75691 11.9912L3.23856 13.9487C2.86677 14.1555 2.42297 13.8331 2.5048 13.4156L3.27922 9.46455C3.31249 9.29481 3.25567 9.11994 3.12898 9.00217L0.180103 6.2609C-0.131502 5.97124 0.0380152 5.44951 0.460371 5.39832L4.45734 4.9139C4.62905 4.89309 4.77781 4.78501 4.85067 4.62813L6.54652 0.976481Z" fill="#FFB320"/>
</svg>
